<?xml version="1.0" encoding="UTF-8"?>
<svg id="Layer_2" data-name="Layer 2" xmlns="http://www.w3.org/2000/svg" viewBox="0 0 91.78 141.22">
  <g id="Layer_1-2" data-name="Layer 1">
    <g>
      <path d="M46.19,72.09c2.65,9.15,6.16,17.65,11.16,25.75,4.48,7.26,9.88,16.31,18.82,8.06,6.28-5.79,10.64-16.7,11.9-25.01.18.07.28.22.4.54,16.8,43.7-34.01,76.13-70.1,50.98C1.92,120.96-4.21,101.43,2.96,82.49c.22-.57.41-1.46.94-1.81,1.31,8.6,5.51,19.53,12.12,25.45,8.64,7.74,13.79-.64,18.16-7.62,5.11-8.16,8.91-17.11,11.37-26.42h.64Z"/>
      <path d="M53.26,11.14c10.83,4.31,16.49,15.25,14.26,26.72-1.58,8.07-8.47,16.06-15.16,20.54-5.43,3.63-8.41,3.14-13.58-.48-9.11-6.39-15.63-16.17-14.83-27.71.59-8.58,6.92-15.73,14.55-19.07-1.51-3.78,0-8.23,3.6-10.16,6.61-3.55,14.06,3.29,11.17,10.17Z"/>
      <path d="M68.91,45.08c.2-.15,2.32,1.6,2.64,1.87,12.51,10.41,16.1,22.15,11.83,38.06-1.64,6.12-6.11,15.29-11.32,19.09-4.3,3.13-7.08-1.31-9.2-4.61-5.99-9.33-9.85-18.5-12.63-29.24-.24-.94-1.25-4.34-1.17-5.01s3.26-1.9,4.04-2.35c6.79-4.02,12.78-10.5,15.8-17.81Z"/>
      <path d="M23.07,45.3c3.19,7.39,8.76,13.38,15.58,17.58,1.17.72,4.03,1.53,4.05,3.01.02,1.22-1.07,4.46-1.45,5.84-2.58,9.38-5.86,17.39-10.87,25.71-3.79,6.29-6.56,11.47-13.15,4.04-7.21-8.14-10.66-20.42-10.03-31.19s7.77-18.85,15.87-25Z"/>
    </g>
  </g>
</svg>