<?xml version="1.0" encoding="UTF-8"?>
<svg id="Layer_2" data-name="Layer 2" xmlns="http://www.w3.org/2000/svg" viewBox="0 0 90.86 133.08">
  <g id="Layer_1-2" data-name="Layer 1">
    <path d="M60.41,40.83c12.66,7.07,21.41,21.07,25.23,34.82,8.01,28.85-16.3,48.16-43.41,46.71-28.9-1.55-45.5-25.35-35.09-52.94,4.58-12.14,12.73-22.53,23.96-29.14-9.77-8.2-11.17-21.61-3.3-31.73C34.69-.28,46.94-2.54,56.67,3.04c13.82,7.93,15.36,27.21,3.74,37.79Z"/>
    <path d="M90.38,90.85c.39.13.41,1.28.43,1.65.84,14.81-7.95,27.64-20.55,34.53C41.88,142.52-1.37,127.47.03,91.18c.01-.27-.17-.82.22-.77,1.6,13.96,11.43,25.79,24.09,31.33,16.69,7.3,38.69,5.72,52.7-6.43,7.15-6.2,12.63-14.81,13.34-24.45Z"/>
  </g>
</svg>