<?xml version="1.0" encoding="UTF-8"?>
<svg id="Layer_2" data-name="Layer 2" xmlns="http://www.w3.org/2000/svg" viewBox="0 0 90.86 147.37">
  <g id="Layer_1-2" data-name="Layer 1">
    <g>
      <path d="M85.8,102.52c-1.18-6.83-2.45-10.83-6.65-16.3-2.37,3.3-8.77,3.54-12.89,2.94-9.21-1.35-13.6-7.56-24-3.35-9.77,3.95-15.93,16.39-8.31,25.15,7.7,8.84,22.54,3.57,18.38-7.07-3-7.67-13.2-5.04-9.61,3.02l-.49,1.07c-4.89,1.91-5.9-8.31.61-11.65s12.76,1.26,14.53,8.36c3.66,14.72-19.51,20.71-27.72,8.02-7.43-11.49-.46-28.18,14.31-31.49,7.94-1.78,14.12,2.07,21.38,4.05,4.22,1.15,8.45,1.17,11.87-1.82-.01-.02.14-.14.12-.15,4.37-7.53,3.83-17.77-.38-25.26-5.12-9.1-15.03-13.57-23.48-18.9-5.33-3.36-12.71-8.55-12.08-15.77.2-2.25,1.64-5.06,3.82-5.9-.29,3.38,1.39,5.89,4.5,7.05,1.06.39,2.19.52,3.25.87,3.66,1.21,6.23,4.36,10.49,4.03,1.1-.09,3.44-.77,3.29-2.21-.05-.43-1.65-2.94-1.96-3.71-1.31-3.19-1.07-6.4-2.39-9.71C59.2,5.82,53.99,1.1,45.27.17,23.48-2.17,12.5,20.36,15.79,39.27c.67,3.88,2,6.59,3.17,10.16,1.53,4.69-.41,15.4-3.09,19.6-1.82,2.86-6.94,3.6-5.71,8.08.18.64,1.54,2.88,2.22,2.53.55-.28,2.53-2.61,3.21-3.23,1.52-1.39,4.45-3.25,5.56-4.69,3.91-5.05,4.74-15.71,9.94-19,4.33-2.74,12.5-1.88,15.36,2.69l-2.56-1.26c-7.3-3.17-16.36,1.29-14.35,10.11.3,1.31,1.14,2.27,1.48,3.49-11.41,4.11-19.94,14.28-24.25,25.41-1.07,2.77-2.03,6-2.59,9.07-1.03,19.07,13.39,34.07,37.62,35.28,24.58,1.23,46.84-11.6,44-34.99Z"/>
      <path d="M90.81,106.79c-.02-.37-.03-1.52-.43-1.65-.71,9.64-6.19,18.25-13.34,24.45-14.01,12.15-36.01,13.74-52.7,6.43C11.68,130.49,1.85,118.67.25,104.7c-.38-.05-.21.5-.22.77-1.4,36.29,41.85,51.34,70.22,35.85,12.6-6.88,21.39-19.72,20.55-34.53Z"/>
    </g>
  </g>
</svg>